<?xml version="1.0" encoding="UTF-8"?>
<svg version="1.1" xmlns="http://www.w3.org/2000/svg" width="1024" height="212">
<path d="M0 0 C337.92 0 675.84 0 1024 0 C1024 69.96 1024 139.92 1024 212 C686.08 212 348.16 212 0 212 C0 142.04 0 72.08 0 0 Z " fill="#091931" transform="translate(0,0)"/>
<path d="M0 0 C58.45387214 0 58.45387214 0 72.3125 12.625 C81.92228962 22.92543159 84.41127869 34.88968728 84.18359375 48.45703125 C83.96709169 52.63506042 83.44233627 56.09050959 82 60 C81.53980469 61.38251953 81.53980469 61.38251953 81.0703125 62.79296875 C76.70078308 74.68110225 69.23984321 82.35202554 58 88 C57.03900391 88.49113281 57.03900391 88.49113281 56.05859375 88.9921875 C40.44358167 96.32809921 10.65490955 92 0 92 C0 61.64 0 31.28 0 0 Z " fill="#FBFBFA" transform="translate(292,62)"/>
<path d="M0 0 C23.76 0 47.52 0 72 0 C72 5.28 72 10.56 72 16 C54.18 16 36.36 16 18 16 C18 22.93 18 29.86 18 37 C33.84 37 49.68 37 66 37 C66 42.28 66 47.56 66 53 C50.16 53 34.32 53 18 53 C18 60.59 18 68.18 18 76 C35.82 76 53.64 76 72 76 C72 81.28 72 86.56 72 92 C48.24 92 24.48 92 0 92 C0 61.64 0 31.28 0 0 Z " fill="#F3F4F5" transform="translate(201,62)"/>
<path d="M0 0 C7.36486944 -0.09932908 14.72934363 -0.17168728 22.09472656 -0.21972656 C24.59707436 -0.23976603 27.09937578 -0.26700522 29.6015625 -0.30175781 C33.21105437 -0.3506124 36.81992379 -0.37304645 40.4296875 -0.390625 C41.53738495 -0.41127014 42.6450824 -0.43191528 43.78634644 -0.45318604 C52.90827876 -0.45578515 60.97743842 1.45109471 67.875 7.75 C68.57367187 8.36359375 69.27234375 8.9771875 69.9921875 9.609375 C74.97943122 15.54749399 76.71399759 21.1906142 76.5625 28.875 C76.54606445 30.05799683 76.54606445 30.05799683 76.52929688 31.26489258 C76.20376089 40.04984277 73.52758889 45.9315441 67.0625 51.9375 C59.49867335 58 59.49867335 58 55 58 C59.19493083 64.42720225 63.610425 70.65274378 68.1875 76.8125 C68.80302734 77.64458984 69.41855469 78.47667969 70.05273438 79.33398438 C73.32600206 83.77383501 73.32600206 83.77383501 76.6965332 88.1394043 C78 90 78 90 78 92 C61.42997723 94.03808868 61.42997723 94.03808868 56.23242188 90.94970703 C53.18167313 88.0763998 51.15579029 84.55011461 49.12402344 80.91699219 C47.17616342 77.59496855 44.80226127 74.58151356 42.5 71.5 C39.7408625 67.74710981 37.75772314 64.39430785 36 60 C29.4 60 22.8 60 16 60 C16 70.56 16 81.12 16 92 C10.39 92 4.78 92 -1 92 C-1 76.82 -1 61.64 -1 46 C2.3 45.97421875 5.6 45.9484375 9 45.921875 C12.21378934 45.88340745 15.42742079 45.83826225 18.64111328 45.79248047 C20.86597086 45.76434228 23.09092707 45.74309235 25.31591797 45.72900391 C28.52362303 45.70747568 31.73015103 45.66077322 34.9375 45.609375 C35.92427734 45.60814636 36.91105469 45.60691772 37.92773438 45.60565186 C44.34931076 45.47099791 48.49308765 44.35395234 54 41 C57.05667446 37.56845037 58.2227899 33.35576577 58.4375 28.8125 C57.98392543 24.85992164 57.57156089 23.00015437 55 20 C49.4571662 16.31020391 44.12180384 16.52773447 37.6953125 16.48828125 C36.61619598 16.47033005 35.53707947 16.45237885 34.42526245 16.43388367 C30.99188091 16.37987133 27.55863769 16.3459133 24.125 16.3125 C21.79164746 16.279319 19.45831315 16.24482862 17.125 16.20898438 C11.41676659 16.12414968 5.70857358 16.05729466 0 16 C0 10.72 0 5.44 0 0 Z " fill="#F9F9F9" transform="translate(753,62)"/>
<path d="M0 0 C5.94 0 11.88 0 18 0 C18.0093457 1.74015381 18.01869141 3.48030762 18.02832031 5.27319336 C18.06398626 11.0528703 18.11787166 16.83222691 18.18390274 22.61162472 C18.22324309 26.11227604 18.25549655 29.6126809 18.27099609 33.11352539 C18.28917878 37.1476996 18.33918781 41.18095542 18.390625 45.21484375 C18.39185364 46.45894516 18.39308228 47.70304657 18.39434814 48.98484802 C18.53907132 57.64935382 20.34342812 63.40208712 24.625 70.8125 C29.43300298 75.24092379 35.52272531 77.19470522 42 77.5625 C48.32108879 77.27382035 53.87487919 74.72139707 58.6328125 70.578125 C64.27288997 64.29636207 66.07107626 56.66434829 66.20532227 48.4753418 C66.22526749 47.39459885 66.24521271 46.3138559 66.26576233 45.20036316 C66.28247482 44.0449855 66.29918732 42.88960785 66.31640625 41.69921875 C66.3475779 39.91195122 66.3475779 39.91195122 66.37937927 38.08857727 C66.44468179 34.28827597 66.50367018 30.48790648 66.5625 26.6875 C66.60570356 24.10871695 66.64931844 21.52994076 66.69335938 18.95117188 C66.80034348 12.63418419 66.90166541 6.31712801 67 0 C72.28 0 77.56 0 83 0 C83.09097833 7.59844011 83.16410211 15.19667221 83.20724869 22.79552746 C83.22797466 26.32540076 83.2560106 29.85487675 83.30175781 33.38452148 C83.35421564 37.45820559 83.37306869 41.5314835 83.390625 45.60546875 C83.41127014 46.8507988 83.43191528 48.09612885 83.45318604 49.37919617 C83.45651236 62.59387082 80.49635985 73.4414297 71.1171875 82.8984375 C61.21246889 92.1039995 50.38912058 94.68625337 37.109375 94.30859375 C25.76370078 93.67033337 16.98752393 89.33657241 9.2578125 81.15625 C2.45966801 72.90377609 -0.13652362 62.52781717 -0.11352539 51.99462891 C-0.11344986 50.83387848 -0.11337433 49.67312805 -0.11329651 48.47720337 C-0.10813522 47.23949188 -0.10297394 46.0017804 -0.09765625 44.7265625 C-0.0962413 43.44768158 -0.09482635 42.16880066 -0.09336853 40.85116577 C-0.08873022 37.46788664 -0.07976081 34.08467614 -0.06866455 30.70141602 C-0.05839515 27.24235626 -0.05385911 23.78328939 -0.04882812 20.32421875 C-0.03781609 13.5494579 -0.02056018 6.77473833 0 0 Z " fill="#FAFAF9" transform="translate(392,62)"/>
<path d="M0 0 C3.20156103 1.7846822 6.1500893 3.69632219 9 6 C7.68302856 9.79793279 6.08343619 12.35328268 3.375 15.3125 C2.74335937 16.00988281 2.11171875 16.70726563 1.4609375 17.42578125 C0.73777344 18.20501953 0.73777344 18.20501953 0 19 C-0.71285156 18.59007813 -1.42570313 18.18015625 -2.16015625 17.7578125 C-3.11792969 17.21898438 -4.07570313 16.68015625 -5.0625 16.125 C-6.00222656 15.59132813 -6.94195313 15.05765625 -7.91015625 14.5078125 C-13.81561421 11.62600874 -19.08160218 10.72334665 -25.625 10.75 C-26.89601563 10.74484375 -28.16703125 10.7396875 -29.4765625 10.734375 C-32.82458967 10.98677616 -35.07811174 11.37069428 -38 13 C-39.55066945 17.65200836 -39.79970038 23.34283502 -38 28 C-36.09920739 29.03425919 -36.09920739 29.03425919 -33.69140625 29.54296875 C-32.33233154 29.90140869 -32.33233154 29.90140869 -30.94580078 30.26708984 C-29.48762939 30.62988037 -29.48762939 30.62988037 -28 31 C-25.00691214 31.80957708 -22.01793705 32.63315081 -19.02929688 33.45898438 C-16.967441 34.02817643 -14.90226604 34.58547862 -12.83398438 35.13085938 C-2.83114176 37.93676858 4.55870999 41.98786342 10 51 C12.42015183 58.26045548 12.16893304 67.61227025 8.9375 74.5625 C4.18513687 82.56717867 -2.25152841 86.25731196 -11 89 C-24.8915793 92.4671545 -39.23323177 89.69866187 -51.44140625 82.62890625 C-55.12281837 80.28516754 -58.60644795 77.74206785 -62 75 C-59 71 -56 67 -53 63 C-49.58029428 63.64168391 -47.21976895 64.99299981 -44.3125 66.875 C-34.81998425 72.61466069 -26.08088175 74.24339927 -15 73 C-10.84149242 71.29671692 -10.84149242 71.29671692 -7.625 68.3125 C-6.6496069 64.70354553 -6.70243664 61.74929833 -7 58 C-12.16041042 51.44375676 -23.54052582 50.6191455 -31.22265625 48.98242188 C-39.96833125 47.01559977 -48.88659323 43.86352083 -54.2578125 36.20703125 C-58.24329704 28.77953734 -58.39806177 19.5835092 -56.375 11.50390625 C-53.52779855 4.9833065 -47.62973101 -0.04969954 -41.1875 -2.875 C-27.63724794 -7.6574419 -12.99228487 -5.62417701 0 0 Z " fill="#F8F9F8" transform="translate(552,66)"/>
<path d="M0 0 C32.78571429 0 32.78571429 0 42.5625 9.375 C49.07915205 17.08286802 49.97729098 25.27282042 49.25 35.00488281 C48.24255914 43.04473314 44.60710967 49.36276062 38.453125 54.5 C24.37463185 63.10850537 19.77732784 60 0 60 C0 40.2 0 20.4 0 0 Z " fill="#091A32" transform="translate(309,78)"/>
<path d="M0 0 C25.74 0 51.48 0 78 0 C78 5.28 78 10.56 78 16 C68.1 16 58.2 16 48 16 C48 41.08 48 66.16 48 92 C42.39 92 36.78 92 31 92 C31 66.92 31 41.84 31 16 C20.77 16 10.54 16 0 16 C0 10.72 0 5.44 0 0 Z " fill="#FCFCFC" transform="translate(571,62)"/>
<path d="M0 0 C5.28 0 10.56 0 16 0 C18.42563628 5.65804709 20.84659425 11.31806345 23.26318359 16.97998047 C24.0864344 18.90696587 24.91097497 20.83340078 25.73681641 22.75927734 C26.9216692 25.5229856 28.10191308 28.28862182 29.28125 31.0546875 C29.65310425 31.9193161 30.0249585 32.7839447 30.40808105 33.67477417 C30.74843384 34.47545319 31.08878662 35.2761322 31.43945312 36.10107422 C31.7414563 36.8072287 32.04345947 37.51338318 32.35461426 38.24093628 C33 40 33 40 33 42 C27.39 42 21.78 42 16 42 C10.2140625 29.6734375 10.2140625 29.6734375 8.9296875 25.6328125 C8.2921377 22.856701 8.2921377 22.856701 6 22 C5.89816406 22.83789062 5.79632812 23.67578125 5.69140625 24.5390625 C4.91844507 28.40823544 3.54513347 31.80030454 1.9375 35.375 C0.968125 37.56125 -0.00125 39.7475 -1 42 C-6.61 42 -12.22 42 -18 42 C-17.11915435 37.59577175 -15.96907716 34.27994261 -14.19921875 30.1953125 C-13.92157181 29.5531076 -13.64392487 28.91090271 -13.35786438 28.24923706 C-12.77099049 26.89510239 -12.1816828 25.54202022 -11.59008789 24.18994141 C-10.69458293 22.14120432 -9.80866144 20.08852118 -8.92382812 18.03515625 C-8.34952983 16.71329323 -7.77467759 15.3916707 -7.19921875 14.0703125 C-6.68190186 12.88195801 -6.16458496 11.69360352 -5.6315918 10.46923828 C-3.92645242 6.84361646 -2.03123831 3.4508736 0 0 Z " fill="#F9F9F8" transform="translate(684,62)"/>
<path d="M0 0 C4.64378267 -1.04137984 8.37239069 -1.20535278 13 0 C18.50004837 4.06936094 22.80405022 9.64468052 27 15 C24.72117923 22.07169541 22.1125737 28.96924958 19.375 35.875 C18.56967044 37.913809 17.76495419 39.9528604 16.9609375 41.9921875 C16.60821777 42.88276855 16.25549805 43.77334961 15.89208984 44.69091797 C15.21503655 46.44340019 14.59410396 48.21768813 14 50 C7.73 50 1.46 50 -5 50 C-3.24902012 44.74706037 -1.5511653 39.70724092 0.515625 34.609375 C0.96164062 33.48789063 1.40765625 32.36640625 1.8671875 31.2109375 C2.79660263 28.88477422 3.73424391 26.56188242 4.6796875 24.2421875 C5.12054687 23.12585938 5.56140625 22.00953125 6.015625 20.859375 C6.42071289 19.85358398 6.82580078 18.84779297 7.24316406 17.81152344 C8.07721733 14.71315009 7.96985696 13.03223021 7 10 C5.40373547 7.78593027 5.40373547 7.78593027 3.4375 5.8125 C0 2.19517103 0 2.19517103 0 0 Z " fill="#F7F8F6" transform="translate(651,104)"/>
<path d="M0 0 C-0.93441535 1.27310312 -1.87267111 2.543388 -2.8125 3.8125 C-3.33457031 4.52019531 -3.85664062 5.22789063 -4.39453125 5.95703125 C-6 8 -6 8 -7.76171875 9.44921875 C-8.17035156 9.96097656 -8.57898438 10.47273438 -9 11 C-8.50280723 15.25979764 -6.89756277 18.99958722 -5.27734375 22.9453125 C-4.73370738 24.28254534 -4.19008809 25.61978513 -3.64648438 26.95703125 C-2.78976586 29.04893237 -1.93129302 31.14010337 -1.07202148 33.23095703 C-0.24033124 35.25901815 0.58512626 37.28953482 1.41015625 39.3203125 C1.90652588 40.52961426 2.40289551 41.73891602 2.91430664 42.98486328 C4 46 4 46 4 49 C-1.94 49 -7.88 49 -14 49 C-15.85616859 44.35702883 -17.70915523 39.7130413 -19.55419922 35.06567383 C-20.18288913 33.48486112 -20.813413 31.9047765 -21.44580078 30.32543945 C-22.35411208 28.05608713 -23.2558103 25.78420391 -24.15625 23.51171875 C-24.44060913 22.80536789 -24.72496826 22.09901703 -25.01794434 21.3712616 C-26.17832702 18.42668503 -27 16.19559771 -27 13 C-25.4609375 11.38671875 -25.4609375 11.38671875 -23.375 9.6875 C-20.64777858 7.45829293 -18.46246491 5.33707245 -16.3125 2.5625 C-12.13730506 -1.84659941 -5.55920724 -0.44539643 0 0 Z " fill="#F9F9F8" transform="translate(732,105)"/>
<path d="M0 0 C0.33 0 0.66 0 1 0 C0.93989582 1.93835966 0.85108283 3.87584491 0.75 5.8125 C0.70359375 6.89144531 0.6571875 7.97039062 0.609375 9.08203125 C0 12 0 12 -2.046875 13.88671875 C-2.69140625 14.25410156 -3.3359375 14.62148437 -4 15 C-3.52396226 12.87429688 -3.04407402 10.74945573 -2.5625 8.625 C-2.29566406 7.44164063 -2.02882813 6.25828125 -1.75390625 5.0390625 C-1 2 -1 2 0 0 Z " fill="#1F2E40" transform="translate(376,112)"/>
<path d="M0 0 C0.99 0.66 1.98 1.32 3 2 C2.21625 2.763125 1.4325 3.52625 0.625 4.3125 C-2.07257717 6.90891805 -2.07257717 6.90891805 -4 10 C-4.25 7.25 -4.25 7.25 -4 4 C-2 1.625 -2 1.625 0 0 Z " fill="#13253A" transform="translate(516,78)"/>
<path d="M0 0 C0.99 0.33 1.98 0.66 3 1 C2.04882866 2.1725131 1.08882991 3.33787015 0.125 4.5 C-0.40867187 5.1496875 -0.94234375 5.799375 -1.4921875 6.46875 C-1.98976563 6.9740625 -2.48734375 7.479375 -3 8 C-3.66 8 -4.32 8 -5 8 C-4.45773019 4.20411134 -2.79872437 2.52788007 0 0 Z " fill="#1A2B3E" transform="translate(727,111)"/>
<path d="M0 0 C0.99 0.33 1.98 0.66 3 1 C2.690625 1.598125 2.38125 2.19625 2.0625 2.8125 C0.89790296 5.08956772 0.89790296 5.08956772 0 8 C-0.66 8 -1.32 8 -2 8 C-1.34 5.36 -0.68 2.72 0 0 Z " fill="#2C3B4D" transform="translate(690,84)"/>
</svg>
